<?xml version="1.0" encoding="UTF-8" standalone="no"?>
<!-- Created with Inkscape (http://www.inkscape.org/) -->

<svg
   xmlns:dc="http://purl.org/dc/elements/1.1/"
   xmlns:cc="http://creativecommons.org/ns#"
   xmlns:rdf="http://www.w3.org/1999/02/22-rdf-syntax-ns#"
   xmlns:svg="http://www.w3.org/2000/svg"
   xmlns="http://www.w3.org/2000/svg"
   xmlns:xlink="http://www.w3.org/1999/xlink"
   xmlns:sodipodi="http://sodipodi.sourceforge.net/DTD/sodipodi-0.dtd"
   xmlns:inkscape="http://www.inkscape.org/namespaces/inkscape"
   width="100"
   height="100"
   viewBox="0 0 100 100"
   id="svg2"
   version="1.1"
   inkscape:version="0.91 r13725"
   sodipodi:docname="Planet.svg"
   inkscape:export-filename="C:\Users\Jim\Planet.png"
   inkscape:export-xdpi="90"
   inkscape:export-ydpi="90">
  <defs
     id="defs4">
    <linearGradient
       inkscape:collect="always"
       id="linearGradient4194">
      <stop
         style="stop-color:#000000;stop-opacity:0.26162791"
         offset="0"
         id="stop4196" />
      <stop
         style="stop-color:#222b00;stop-opacity:0;"
         offset="1"
         id="stop4198" />
    </linearGradient>
    <linearGradient
       inkscape:collect="always"
       xlink:href="#linearGradient4194"
       id="linearGradient4200"
       x1="90"
       y1="1002.3622"
       x2="2"
       y2="1002.3622"
       gradientUnits="userSpaceOnUse" />
  </defs>
  <sodipodi:namedview
     id="base"
     pagecolor="#ffffff"
     bordercolor="#666666"
     borderopacity="1.0"
     inkscape:pageopacity="0.0"
     inkscape:pageshadow="2"
     inkscape:zoom="7.9195959"
     inkscape:cx="41.035875"
     inkscape:cy="61.767652"
     inkscape:document-units="px"
     inkscape:current-layer="layer1"
     showgrid="true"
     units="px"
     inkscape:snap-nodes="true"
     inkscape:window-width="2498"
     inkscape:window-height="1417"
     inkscape:window-x="54"
     inkscape:window-y="-8"
     inkscape:window-maximized="1">
    <inkscape:grid
       type="xygrid"
       id="grid4136"
       spacingx="2"
       spacingy="2" />
  </sodipodi:namedview>
  <metadata
     id="metadata7">
    <rdf:RDF>
      <cc:Work
         rdf:about="">
        <dc:format>image/svg+xml</dc:format>
        <dc:type
           rdf:resource="http://purl.org/dc/dcmitype/StillImage" />
        <dc:title></dc:title>
      </cc:Work>
    </rdf:RDF>
  </metadata>
  <g
     inkscape:label="Layer 1"
     inkscape:groupmode="layer"
     id="layer1"
     transform="translate(0,-952.36216)">
    <ellipse
       style="opacity:1;fill:#4183ad;fill-opacity:1;stroke:#000000;stroke-width:1;stroke-linecap:round;stroke-linejoin:round;stroke-miterlimit:4;stroke-dasharray:none;stroke-opacity:1"
       id="path4142"
       cx="50"
       cy="1002.3622"
       rx="48"
       ry="48.000023" />
    <path
       style="fill:#338000;fill-opacity:1;fill-rule:evenodd;stroke:#000000;stroke-width:1px;stroke-linecap:butt;stroke-linejoin:miter;stroke-opacity:1"
       d="m 60.126269,955.47828 c -0.155982,5.60193 -11.502983,9.6664 -0.126269,16.88388 7.238855,4.59239 26.11314,3.73647 20,12 -3.99821,5.40464 -12.069537,4.95934 -10,18.00004 0.614648,3.8731 1.088323,12.1421 20,10 3.593219,-0.407 5.695868,-5.2165 8,-10 -0.419659,-23.34635 -15.621193,-41.76781 -37.873731,-46.88392 z"
       id="path4178"
       inkscape:connector-curvature="0"
       sodipodi:nodetypes="csssscc" />
    <path
       style="fill:#338000;fill-rule:evenodd;stroke:#000000;stroke-width:1px;stroke-linecap:butt;stroke-linejoin:miter;stroke-opacity:1;fill-opacity:1"
       d="m 21.71828,988.21747 c -6.498069,2.46353 -9.392272,12.02423 -8.712566,18.94033 0.701584,7.1387 7.542017,12.3659 12.626907,17.4252 3.891609,3.872 8.146485,11.2397 13.384521,9.5964 6.008008,-1.8848 8.039298,-11.7483 6.313454,-17.8039 -0.96028,-3.3694 -6.269342,-3.6473 -8.20749,-6.566 -3.243043,-4.8837 -0.949814,-12.49766 -4.798224,-16.92007 -2.536093,-2.91436 -6.994176,-6.04149 -10.606602,-4.67196 z"
       id="path4180"
       inkscape:connector-curvature="0"
       sodipodi:nodetypes="ssssssss" />
    <path
       style="fill:#447821;fill-rule:evenodd;stroke:#000000;stroke-width:1px;stroke-linecap:butt;stroke-linejoin:miter;stroke-opacity:1;fill-opacity:1"
       d="m 69.700526,1022.6889 c -4.61633,-0.9063 -9.341128,3.7836 -11.743024,7.8287 -2.179015,3.6697 -3.106347,8.9671 -1.136421,12.7532 1.47953,2.8436 5.128309,4.7944 8.333758,4.7982 5.509033,-2.3919 10.889571,-4.3691 15.657365,-8.9651 1.49255,-6.4366 -4.628034,-15.1421 -11.111678,-16.415 z"
       id="path4182"
       inkscape:connector-curvature="0"
       sodipodi:nodetypes="sssccs" />
    <circle
       style="opacity:1;fill:url(#linearGradient4200);fill-opacity:1;stroke:#000000;stroke-width:4;stroke-linecap:round;stroke-linejoin:round;stroke-miterlimit:4;stroke-dasharray:none;stroke-opacity:1"
       id="path4184"
       cx="50"
       cy="1002.3622"
       r="48" />
  </g>
</svg>
