<?xml version="1.0" encoding="UTF-8" standalone="no"?>
<!-- Created with Inkscape (http://www.inkscape.org/) -->

<svg
   xmlns:dc="http://purl.org/dc/elements/1.1/"
   xmlns:cc="http://creativecommons.org/ns#"
   xmlns:rdf="http://www.w3.org/1999/02/22-rdf-syntax-ns#"
   xmlns:svg="http://www.w3.org/2000/svg"
   xmlns="http://www.w3.org/2000/svg"
   xmlns:xlink="http://www.w3.org/1999/xlink"
   xmlns:sodipodi="http://sodipodi.sourceforge.net/DTD/sodipodi-0.dtd"
   xmlns:inkscape="http://www.inkscape.org/namespaces/inkscape"
   width="5500"
   height="550"
   id="svg3775"
   version="1.1"
   inkscape:version="0.48.5 r10040"
   sodipodi:docname="ExplosionCloud.svg"
   inkscape:export-filename="E:\Dropbox\Public\SmashGrab\graphics\Game\Particles\ExplosionCloud.png"
   inkscape:export-xdpi="9.1636362"
   inkscape:export-ydpi="9.1636362">
  <defs
     id="defs3777">
    <linearGradient
       id="linearGradient4489">
      <stop
         style="stop-color:#959595;stop-opacity:1;"
         offset="0"
         id="stop4491" />
      <stop
         style="stop-color:#c3c3c3;stop-opacity:1;"
         offset="1"
         id="stop4493" />
    </linearGradient>
    <linearGradient
       id="linearGradient4465">
      <stop
         style="stop-color:#505050;stop-opacity:1;"
         offset="0"
         id="stop4467" />
      <stop
         style="stop-color:#b8b8b8;stop-opacity:1;"
         offset="1"
         id="stop4469" />
    </linearGradient>
    <linearGradient
       id="linearGradient4447">
      <stop
         style="stop-color:#939393;stop-opacity:1;"
         offset="0"
         id="stop4449" />
      <stop
         style="stop-color:#c6c6c6;stop-opacity:1;"
         offset="1"
         id="stop4451" />
    </linearGradient>
    <linearGradient
       id="linearGradient4431">
      <stop
         style="stop-color:#737373;stop-opacity:1;"
         offset="0"
         id="stop4433" />
      <stop
         style="stop-color:#d3d3d3;stop-opacity:1;"
         offset="1"
         id="stop4435" />
    </linearGradient>
    <linearGradient
       id="linearGradient4407">
      <stop
         style="stop-color:#8e8e8e;stop-opacity:1;"
         offset="0"
         id="stop4409" />
      <stop
         style="stop-color:#454545;stop-opacity:1;"
         offset="1"
         id="stop4411" />
    </linearGradient>
    <linearGradient
       id="linearGradient4387">
      <stop
         style="stop-color:#5c5c5c;stop-opacity:1;"
         offset="0"
         id="stop4389" />
      <stop
         style="stop-color:#acacac;stop-opacity:1;"
         offset="1"
         id="stop4391" />
    </linearGradient>
    <linearGradient
       id="linearGradient4345">
      <stop
         style="stop-color:#7b7b7b;stop-opacity:1;"
         offset="0"
         id="stop4347" />
      <stop
         style="stop-color:#d2d1d6;stop-opacity:1;"
         offset="1"
         id="stop4349" />
    </linearGradient>
    <linearGradient
       id="linearGradient4331">
      <stop
         id="stop4333"
         offset="0"
         style="stop-color:#777777;stop-opacity:1;" />
      <stop
         id="stop4335"
         offset="1"
         style="stop-color:#c3c3c3;stop-opacity:1;" />
    </linearGradient>
    <linearGradient
       id="linearGradient4313">
      <stop
         style="stop-color:#5e5e5e;stop-opacity:1;"
         offset="0"
         id="stop4315" />
      <stop
         style="stop-color:#9a9a9a;stop-opacity:1;"
         offset="1"
         id="stop4317" />
    </linearGradient>
    <radialGradient
       inkscape:collect="always"
       xlink:href="#linearGradient4331"
       id="radialGradient4329"
       cx="835.06329"
       cy="280.18158"
       fx="835.06329"
       fy="280.18158"
       r="257.19342"
       gradientTransform="matrix(1,0,0,1.0208971,0,-5.8549846)"
       gradientUnits="userSpaceOnUse" />
    <radialGradient
       inkscape:collect="always"
       xlink:href="#linearGradient4345"
       id="radialGradient4351"
       cx="1364.1317"
       cy="793.90605"
       fx="1364.1317"
       fy="793.90605"
       r="270.45503"
       gradientTransform="matrix(1,0,0,0.96423498,13.518218,13.835988)"
       gradientUnits="userSpaceOnUse" />
    <radialGradient
       inkscape:collect="always"
       xlink:href="#linearGradient4331"
       id="radialGradient4369"
       cx="1921.6232"
       cy="276.75629"
       fx="1921.6232"
       fy="276.75629"
       r="269.32803"
       gradientTransform="matrix(1,0,0,0.95881723,7.2790404,511.68004)"
       gradientUnits="userSpaceOnUse" />
    <radialGradient
       inkscape:collect="always"
       xlink:href="#linearGradient4387"
       id="radialGradient4395"
       cx="2471.282"
       cy="773.88416"
       fx="2471.282"
       fy="773.88416"
       r="246.17088"
       gradientTransform="matrix(1,0,0,0.99642293,0,2.7682355)"
       gradientUnits="userSpaceOnUse" />
    <radialGradient
       inkscape:collect="always"
       xlink:href="#linearGradient4407"
       id="radialGradient4413"
       cx="3022.2402"
       cy="271.23158"
       fx="3022.2402"
       fy="271.23158"
       r="265.40538"
       gradientTransform="matrix(1,0,0,1.00424,0,-1.150033)"
       gradientUnits="userSpaceOnUse" />
    <radialGradient
       inkscape:collect="always"
       xlink:href="#linearGradient4431"
       id="radialGradient4437"
       cx="3598.0035"
       cy="263.50377"
       fx="3598.0035"
       fy="263.50377"
       r="248.66108"
       gradientTransform="matrix(1,0,0,0.970395,-22.058824,520.45733)"
       gradientUnits="userSpaceOnUse" />
    <radialGradient
       inkscape:collect="always"
       xlink:href="#linearGradient4447"
       id="radialGradient4453"
       cx="4134.6641"
       cy="264.48713"
       fx="4134.6641"
       fy="264.48713"
       r="247.82013"
       gradientTransform="matrix(1,0,0,1.0430573,-12.478355,503.45244)"
       gradientUnits="userSpaceOnUse" />
    <radialGradient
       inkscape:collect="always"
       xlink:href="#linearGradient4465"
       id="radialGradient4471"
       cx="4684.2772"
       cy="269.11902"
       fx="4684.2772"
       fy="269.11902"
       r="263.72883"
       gradientTransform="matrix(1,0,0,1.0120872,0,-3.2528843)"
       gradientUnits="userSpaceOnUse" />
    <radialGradient
       inkscape:collect="always"
       xlink:href="#linearGradient4489"
       id="radialGradient4495"
       cx="5249.2387"
       cy="281.15654"
       fx="5249.2387"
       fy="281.15654"
       r="233.59528"
       gradientTransform="matrix(1,0,0,1.0829214,-24.95671,470.72938)"
       gradientUnits="userSpaceOnUse" />
    <radialGradient
       inkscape:collect="always"
       xlink:href="#linearGradient4313"
       id="radialGradient4506"
       gradientUnits="userSpaceOnUse"
       gradientTransform="matrix(1,0,0,1.0352696,0,-9.2143211)"
       cx="252.96977"
       cy="261.25354"
       fx="252.96977"
       fy="261.25354"
       r="239.09676" />
    <radialGradient
       inkscape:collect="always"
       xlink:href="#linearGradient4345"
       id="radialGradient4521"
       gradientUnits="userSpaceOnUse"
       gradientTransform="matrix(1,0,0,0.96423498,13.518218,13.835988)"
       cx="1364.1317"
       cy="793.90605"
       fx="1364.1317"
       fy="793.90605"
       r="270.45503" />
    <radialGradient
       inkscape:collect="always"
       xlink:href="#linearGradient4331"
       id="radialGradient4529"
       gradientUnits="userSpaceOnUse"
       gradientTransform="matrix(1,0,0,0.95881723,7.2790404,511.68004)"
       cx="1921.6232"
       cy="276.75629"
       fx="1921.6232"
       fy="276.75629"
       r="269.32803" />
    <radialGradient
       inkscape:collect="always"
       xlink:href="#linearGradient4387"
       id="radialGradient4538"
       gradientUnits="userSpaceOnUse"
       gradientTransform="matrix(1,0,0,0.99642293,0,2.7682355)"
       cx="2471.282"
       cy="773.88416"
       fx="2471.282"
       fy="773.88416"
       r="246.17088" />
    <radialGradient
       inkscape:collect="always"
       xlink:href="#linearGradient4407"
       id="radialGradient4549"
       gradientUnits="userSpaceOnUse"
       gradientTransform="matrix(1,0,0,1.00424,0,-1.150033)"
       cx="3022.2402"
       cy="271.23158"
       fx="3022.2402"
       fy="271.23158"
       r="265.40538" />
    <radialGradient
       inkscape:collect="always"
       xlink:href="#linearGradient4465"
       id="radialGradient4564"
       gradientUnits="userSpaceOnUse"
       gradientTransform="matrix(1,0,0,1.0120872,0,-3.2528843)"
       cx="4684.2772"
       cy="269.11902"
       fx="4684.2772"
       fy="269.11902"
       r="263.72883" />
  </defs>
  <sodipodi:namedview
     id="base"
     pagecolor="#ffffff"
     bordercolor="#000000"
     borderopacity="1.0"
     inkscape:pageopacity="0"
     inkscape:pageshadow="0"
     inkscape:zoom="0.48083261"
     inkscape:cx="4674.8741"
     inkscape:cy="-194.30001"
     inkscape:document-units="px"
     inkscape:current-layer="layer1"
     showgrid="true"
     inkscape:snap-global="false"
     inkscape:window-width="1273"
     inkscape:window-height="1337"
     inkscape:window-x="59"
     inkscape:window-y="43"
     inkscape:window-maximized="0">
    <inkscape:grid
       type="xygrid"
       id="grid3783"
       empspacing="5"
       visible="true"
       enabled="true"
       snapvisiblegridlinesonly="true"
       spacingx="55px"
       spacingy="55px" />
  </sodipodi:namedview>
  <metadata
     id="metadata3780">
    <rdf:RDF>
      <cc:Work
         rdf:about="">
        <dc:format>image/svg+xml</dc:format>
        <dc:type
           rdf:resource="http://purl.org/dc/dcmitype/StillImage" />
        <dc:title></dc:title>
      </cc:Work>
    </rdf:RDF>
  </metadata>
  <g
     inkscape:label="Layer 1"
     inkscape:groupmode="layer"
     id="layer1"
     transform="translate(0,-502.36218)">
    <g
       id="g4497"
       transform="translate(22.876984,8.3189033)">
      <path
         sodipodi:nodetypes="cccccccc"
         transform="translate(0,502.36218)"
         inkscape:connector-curvature="0"
         id="path3785"
         d="M 110,110 C 92.958474,40.779588 245.85153,1.4015364 275,55 385,-55 508.23529,145.29412 440,220 563.23529,299.11765 437.05882,470.88235 385,440 401.17647,490.58824 313.91212,547.23828 275,495 195.28789,546.28074 76.550905,480.704 110,385 7.3529412,404.11765 -19.117647,220 55,220 8.2567088,160.436 20.755258,81.765372 110,110 z"
         style="fill:url(#radialGradient4506);fill-opacity:1;stroke:#000000;stroke-width:10;stroke-linecap:butt;stroke-linejoin:miter;stroke-miterlimit:4;stroke-opacity:1;stroke-dasharray:none" />
      <path
         sodipodi:nodetypes="cc"
         transform="translate(0,502.36218)"
         inkscape:connector-curvature="0"
         id="path3787"
         d="m 220,385 c 64.05442,2.89342 119.74451,-6.29496 110,-110"
         style="fill:none;stroke:#000000;stroke-width:5;stroke-linecap:round;stroke-linejoin:miter;stroke-miterlimit:4;stroke-opacity:1;stroke-dasharray:none" />
      <path
         sodipodi:nodetypes="cc"
         transform="translate(0,502.36218)"
         inkscape:connector-curvature="0"
         id="path3795"
         d="m 110,220 c -19.084456,62.47204 -6.25303,102.93312 55,110"
         style="fill:none;stroke:#000000;stroke-width:5;stroke-linecap:round;stroke-linejoin:miter;stroke-miterlimit:4;stroke-opacity:1;stroke-dasharray:none" />
      <path
         sodipodi:nodetypes="cc"
         transform="translate(0,502.36218)"
         inkscape:connector-curvature="0"
         id="path3797"
         d="m 220,165 c 34.94998,-70.910443 99.78949,-67.638842 165,0"
         style="fill:none;stroke:#000000;stroke-width:5;stroke-linecap:round;stroke-linejoin:miter;stroke-miterlimit:4;stroke-opacity:1;stroke-dasharray:none" />
      <path
         sodipodi:nodetypes="cc"
         transform="translate(0,502.36218)"
         inkscape:connector-curvature="0"
         id="path3799"
         d="M 228.3189,217.92027 C 230.3182,256.12399 253.3046,274.59771 275,275"
         style="fill:none;stroke:#000000;stroke-width:5;stroke-linecap:round;stroke-linejoin:miter;stroke-miterlimit:4;stroke-opacity:1;stroke-dasharray:none" />
      <path
         sodipodi:nodetypes="cc"
         transform="translate(0,502.36218)"
         inkscape:connector-curvature="0"
         id="path3801"
         d="M 196.08315,292.67767 C 227.33556,252.92461 263.35656,289.53384 275,330"
         style="fill:none;stroke:#000000;stroke-width:5;stroke-linecap:round;stroke-linejoin:miter;stroke-miterlimit:4;stroke-opacity:1;stroke-dasharray:none" />
      <path
         sodipodi:nodetypes="cc"
         transform="translate(0,502.36218)"
         inkscape:connector-curvature="0"
         id="path3803"
         d="m 220,220 c 0.72809,29.72543 12.7959,40.24147 -30.04329,57.07973"
         style="fill:none;stroke:#000000;stroke-width:5;stroke-linecap:round;stroke-linejoin:miter;stroke-miterlimit:4;stroke-opacity:1;stroke-dasharray:none" />
    </g>
    <g
       id="g4508"
       transform="translate(-10.398629,-2.0797258)">
      <path
         sodipodi:nodetypes="ccccccccc"
         transform="translate(0,502.36218)"
         inkscape:connector-curvature="0"
         id="path4321"
         d="M 605,275 C 531.28246,206.48178 657.70172,14.423125 750.35534,113.23232 753.87992,-23.611239 912.56341,15.406349 895.4852,93.587663 c 61.16316,-71.68928 162.787,-0.10763 108.9601,84.930557 72.9108,-15.84975 126.2505,161.53232 33.1629,200.24261 C 1078.7778,402.52297 1077.9287,513.86723 990,495 991.78409,511.39785 889.1995,582.39524 825,495 807.70538,510.51265 668.12534,544.63452 695.35534,404.64466 574.09342,453.71606 568.6048,338.3189 605,275 z"
         style="fill:url(#radialGradient4329);fill-opacity:1;stroke:#000000;stroke-width:10;stroke-linecap:butt;stroke-linejoin:miter;stroke-miterlimit:4;stroke-opacity:1;stroke-dasharray:none" />
      <path
         sodipodi:nodetypes="cc"
         inkscape:connector-curvature="0"
         id="path4337"
         d="m 924.43813,949.41575 c -0.74134,-47.50039 -11.37465,-102.33999 70.71064,-88.38834"
         style="fill:none;stroke:#000000;stroke-width:5;stroke-linecap:round;stroke-linejoin:miter;stroke-miterlimit:4;stroke-opacity:1;stroke-dasharray:none" />
      <path
         sodipodi:nodetypes="cc"
         inkscape:connector-curvature="0"
         id="path4339"
         d="m 757.0202,826.71193 c 79.94231,33.37896 115.52371,69.22241 95.66741,108.14574"
         style="fill:none;stroke:#000000;stroke-width:5;stroke-linecap:round;stroke-linejoin:miter;stroke-miterlimit:4;stroke-opacity:1;stroke-dasharray:none" />
      <path
         sodipodi:nodetypes="cc"
         inkscape:connector-curvature="0"
         id="path4341"
         d="m 783.32223,703.76324 c 32.13441,86.97135 -53.50213,79.13683 -119.28969,87.28079"
         style="fill:none;stroke:#000000;stroke-width:5;stroke-linecap:round;stroke-linejoin:miter;stroke-miterlimit:4;stroke-opacity:1;stroke-dasharray:none" />
    </g>
    <g
       id="g4514"
       transform="translate(-4.1594517,0)">
      <path
         sodipodi:nodetypes="cccccccc"
         inkscape:connector-curvature="0"
         id="path4343"
         d="m 1148.0024,771.02756 c -93.4782,-109.59685 86.381,-258.9469 133.1055,-193.28801 40.3779,-101.66013 248.8501,-41.87856 240.2154,29.62668 73.9607,-13.58908 146.5495,77.02609 57.194,159.62031 93.1043,15.17005 75.2512,160.99049 11.4387,162.65109 50.071,79.36627 -129.6861,132.05647 -168.4623,81.83057 -87.9781,51.5582 -212.305,12.5826 -192.3798,-56.5742 -140.0115,19.61667 -136.7364,-169.80553 -81.1115,-183.86644 z"
         style="fill:url(#radialGradient4521);fill-opacity:1;stroke:#000000;stroke-width:10;stroke-linecap:butt;stroke-linejoin:miter;stroke-miterlimit:4;stroke-opacity:1;stroke-dasharray:none" />
      <path
         sodipodi:nodetypes="cc"
         transform="translate(0,502.36218)"
         inkscape:connector-curvature="0"
         id="path4353"
         d="m 1231.1977,253.63907 c 82.2265,-14.81793 122.1365,-48.67824 93.5877,-113.34506"
         style="fill:none;stroke:#000000;stroke-width:5;stroke-linecap:round;stroke-linejoin:miter;stroke-miterlimit:4;stroke-opacity:1;stroke-dasharray:none" />
      <path
         sodipodi:nodetypes="cc"
         transform="translate(0,502.36218)"
         inkscape:connector-curvature="0"
         id="path4355"
         d="m 1390.2967,169.41017 c -30.8169,73.51411 23.1762,108.31059 119.5843,123.74369"
         style="fill:none;stroke:#000000;stroke-width:5;stroke-linecap:round;stroke-linejoin:miter;stroke-miterlimit:4;stroke-opacity:1;stroke-dasharray:none" />
      <path
         sodipodi:nodetypes="cc"
         transform="translate(0,502.36218)"
         inkscape:connector-curvature="0"
         id="path4357"
         d="m 1477.6452,348.26659 c -86.6746,-55.91635 -129.2698,26.70249 -178.8564,87.34849"
         style="fill:none;stroke:#000000;stroke-width:5;stroke-linecap:round;stroke-linejoin:miter;stroke-miterlimit:4;stroke-opacity:1;stroke-dasharray:none" />
      <path
         sodipodi:nodetypes="cc"
         transform="translate(0,502.36218)"
         inkscape:connector-curvature="0"
         id="path4359"
         d="m 1288.3902,363.86454 c 25.5269,-36.19394 45.013,-71.24502 -30.1561,-88.38835"
         style="fill:none;stroke:#000000;stroke-width:5;stroke-linecap:round;stroke-linejoin:miter;stroke-miterlimit:4;stroke-opacity:1;stroke-dasharray:none" />
    </g>
    <g
       id="g4523"
       transform="matrix(0.98069523,0,0,1,36.197146,4.1594517)">
      <path
         sodipodi:nodetypes="ccccccc"
         inkscape:connector-curvature="0"
         id="path4361"
         d="m 1897.7499,975.41232 c -68.1457,110.34348 -254.956,-18.66242 -146.6207,-117.50451 -98.4463,26.34544 -132.005,-219.15803 2.0797,-223.57053 -23.0388,-108.71966 97.2615,-130.45787 141.4214,-42.63437 -17.7121,-91.57743 219.2681,-99.26424 200.6935,31.19588 124.3264,-8.69697 138.0584,285.07301 -4.1595,255.80628 86.0945,112.01526 -152.2467,220.21153 -193.4144,96.70725 z"
         style="fill:url(#radialGradient4529);fill-opacity:1;stroke:#000000;stroke-width:10;stroke-linecap:round;stroke-linejoin:miter;stroke-miterlimit:4;stroke-opacity:1;stroke-dasharray:none" />
      <path
         sodipodi:nodetypes="cc"
         inkscape:connector-curvature="0"
         id="path4371"
         d="m 2050.6097,852.7085 c -116.4493,-26.14142 -107.3474,-182.9052 7.2791,-210.05231"
         style="fill:none;stroke:#000000;stroke-width:5;stroke-linecap:round;stroke-linejoin:miter;stroke-miterlimit:4;stroke-opacity:1;stroke-dasharray:none" />
      <path
         sodipodi:nodetypes="cc"
         inkscape:connector-curvature="0"
         id="path4373"
         d="m 1788.5642,644.73591 c 157.364,34.20887 88.0563,160.48524 49.9135,179.89629"
         style="fill:none;stroke:#000000;stroke-width:5;stroke-linecap:round;stroke-linejoin:miter;stroke-miterlimit:4;stroke-opacity:1;stroke-dasharray:none" />
      <path
         sodipodi:nodetypes="cc"
         inkscape:connector-curvature="0"
         id="path4375"
         d="m 1814.5608,844.38959 c 82.4517,-18.82201 104.4613,48.58964 86.3087,72.7904"
         style="fill:none;stroke:#000000;stroke-width:5;stroke-linecap:round;stroke-linejoin:miter;stroke-miterlimit:4;stroke-opacity:1;stroke-dasharray:none" />
    </g>
    <g
       id="g4531"
       transform="translate(1.729622e-8,8.3189033)">
      <path
         sodipodi:nodetypes="cccccccc"
         inkscape:connector-curvature="0"
         id="path4377"
         d="m 2286.5485,768.5427 c -70.276,-78.08671 -9.6268,-211.51795 79.7895,-163.22028 -1.1475,-96.85204 160.0783,-87.22213 171.7916,-21.00855 44.6175,-39.62559 126.6822,0.17215 93.6306,66.25774 101.1691,-18.60841 99.8816,184.40916 36.638,185.84487 43.3634,70.88875 -100.488,192.26682 -129.4544,127.66732 -49.1836,83.1831 -250.7088,54.5645 -223.0848,-25.8566 -117.0721,1.0613 -101.5657,-179.85359 -29.3105,-169.6845 z"
         style="fill:url(#radialGradient4538);fill-opacity:1;stroke:#000000;stroke-width:10;stroke-linecap:butt;stroke-linejoin:miter;stroke-miterlimit:4;stroke-opacity:1;stroke-dasharray:none" />
      <path
         sodipodi:nodetypes="cc"
         transform="translate(0,502.36218)"
         inkscape:connector-curvature="0"
         id="path4397"
         d="m 2341.7713,271.31674 c 33.2803,18.21963 77.273,-34.60012 49.9134,-102.94643"
         style="fill:none;stroke:#000000;stroke-width:5;stroke-linecap:round;stroke-linejoin:miter;stroke-miterlimit:4;stroke-opacity:1;stroke-dasharray:none" />
      <path
         sodipodi:nodetypes="cc"
         transform="translate(0,502.36218)"
         inkscape:connector-curvature="0"
         id="path4399"
         d="m 2409.3624,207.8851 c 42.0779,60.48266 88.4835,12.44833 94.6275,-17.67767"
         style="fill:none;stroke:#000000;stroke-width:5;stroke-linecap:round;stroke-linejoin:miter;stroke-miterlimit:4;stroke-opacity:1;stroke-dasharray:none" />
      <path
         sodipodi:nodetypes="cc"
         inkscape:connector-curvature="0"
         id="path4401"
         d="m 2522.1045,757.74028 c -42.6405,-10.30363 -125.0714,40.54513 -88.1926,91.27111"
         style="fill:none;stroke:#000000;stroke-width:5;stroke-linecap:round;stroke-linejoin:miter;stroke-miterlimit:4;stroke-opacity:1;stroke-dasharray:none" />
      <path
         sodipodi:nodetypes="cc"
         inkscape:connector-curvature="0"
         id="path4403"
         d="m 2586.541,850.77747 c -59.5824,77.87913 -157.4057,77.92992 -170.1824,42.05858"
         style="fill:none;stroke:#000000;stroke-width:5;stroke-linecap:round;stroke-linejoin:miter;stroke-miterlimit:4;stroke-opacity:1;stroke-dasharray:none" />
    </g>
    <g
       id="g4540"
       transform="translate(6.2391775,4.1594516)">
      <path
         sodipodi:nodetypes="cccccccc"
         transform="translate(0,502.36218)"
         inkscape:connector-curvature="0"
         id="path4405"
         d="m 2810.2941,277.94118 c -94.7496,-21.25163 1.2758,-237.601943 94.1177,-188.235298 7.3102,-121.058118 260.4624,-96.6777734 266.1765,19.117648 68.3564,-67.368085 168.4312,103.39462 49.9999,161.76471 85.3413,5.24583 58.8621,205.57374 -39.7059,180.88235 16.7068,108.53009 -131.0614,90.09898 -147.0587,30.88236 -10.6413,89.96074 -270.0466,50.11276 -191.1766,-45.58825 -85.2759,39.45397 -106.2417,-146.67895 -32.3529,-158.82352 z"
         style="fill:url(#radialGradient4549);fill-opacity:1;stroke:#000000;stroke-width:10;stroke-linecap:butt;stroke-linejoin:miter;stroke-miterlimit:4;stroke-opacity:1;stroke-dasharray:none" />
      <path
         sodipodi:nodetypes="cc"
         transform="translate(0,502.36218)"
         inkscape:connector-curvature="0"
         id="path4415"
         d="m 2985.2941,192.64706 c -106.5303,-24.9107 -123.0334,23.53418 -125,83.82353"
         style="fill:none;stroke:#000000;stroke-width:5;stroke-linecap:round;stroke-linejoin:miter;stroke-miterlimit:4;stroke-opacity:1;stroke-dasharray:none" />
      <path
         sodipodi:nodetypes="cc"
         transform="translate(0,502.36218)"
         inkscape:connector-curvature="0"
         id="path4417"
         d="m 2920.5882,336.76471 c 0.4613,95.48112 45.2358,104.79745 116.1765,63.23529"
         style="fill:none;stroke:#000000;stroke-width:5;stroke-linecap:round;stroke-linejoin:miter;stroke-miterlimit:4;stroke-opacity:1;stroke-dasharray:none" />
      <path
         sodipodi:nodetypes="cc"
         transform="translate(0,502.36218)"
         inkscape:connector-curvature="0"
         id="path4419"
         d="m 3125,367.64706 c 40.6288,-18.7235 118.5905,-141.68322 -27.9412,-170.58824"
         style="fill:none;stroke:#000000;stroke-width:5;stroke-linecap:round;stroke-linejoin:miter;stroke-miterlimit:4;stroke-opacity:1;stroke-dasharray:none" />
      <path
         sodipodi:nodetypes="cc"
         transform="translate(0,502.36218)"
         inkscape:connector-curvature="0"
         id="path4421"
         d="m 2979.4118,288.23529 c 23.0165,-1.71501 40.9433,4.56814 36.7647,45.58824"
         style="fill:none;stroke:#000000;stroke-width:5;stroke-linecap:round;stroke-linejoin:miter;stroke-miterlimit:4;stroke-opacity:1;stroke-dasharray:none" />
      <path
         sodipodi:nodetypes="cc"
         transform="translate(0,502.36218)"
         inkscape:connector-curvature="0"
         id="path4423"
         d="m 3032.3529,322.05882 c -15.1025,-14.75798 -15.093,-31.84088 20.5883,-54.41176"
         style="fill:none;stroke:#000000;stroke-width:5;stroke-linecap:round;stroke-linejoin:miter;stroke-miterlimit:4;stroke-opacity:1;stroke-dasharray:none" />
      <path
         sodipodi:nodetypes="cc"
         transform="translate(0,502.36218)"
         inkscape:connector-curvature="0"
         id="path4427"
         d="m 2988.2353,266.17647 c 46.2051,-1.42838 45.1684,-18.604 45.5882,-35.29412"
         style="fill:none;stroke:#000000;stroke-width:5;stroke-linecap:round;stroke-linejoin:miter;stroke-miterlimit:4;stroke-opacity:1;stroke-dasharray:none" />
    </g>
    <g
       id="g4551">
      <path
         sodipodi:nodetypes="cccccc"
         inkscape:connector-curvature="0"
         id="path4429"
         d="m 3389.7059,790.59748 c -78.6595,-74.84385 -29.8644,-307.03811 154.4118,-175 176.5601,-191.22408 366.1601,24.529 213.2353,154.41176 176.6391,105.87979 -74.1212,269.39636 -119.1177,170.58823 -87.7714,93.04213 -220.9141,97.53603 -201.4705,2.94119 -118.3985,35.71003 -139.0981,-129.02597 -47.0589,-152.94118 z"
         style="fill:url(#radialGradient4437);fill-opacity:1;stroke:#000000;stroke-width:10;stroke-linecap:butt;stroke-linejoin:miter;stroke-miterlimit:4;stroke-opacity:1;stroke-dasharray:none" />
      <path
         sodipodi:nodetypes="cc"
         inkscape:connector-curvature="0"
         id="path4439"
         d="m 3467.6471,790.59748 c 48.3992,1.32147 98.535,-9.04528 82.3529,-110.29412"
         style="fill:none;stroke:#000000;stroke-width:5;stroke-linecap:round;stroke-linejoin:miter;stroke-miterlimit:4;stroke-opacity:1;stroke-dasharray:none" />
      <path
         sodipodi:nodetypes="cc"
         inkscape:connector-curvature="0"
         id="path4441"
         d="m 3561.7648,684.71512 c -0.6439,90.53376 100.8152,102.10311 141.1764,80.88236"
         style="fill:none;stroke:#000000;stroke-width:5;stroke-linecap:round;stroke-linejoin:miter;stroke-miterlimit:4;stroke-opacity:1;stroke-dasharray:none" />
      <path
         sodipodi:nodetypes="cc"
         inkscape:connector-curvature="0"
         id="path4443"
         d="m 3511.7647,896.47983 c 42.5229,-67.11307 80.9607,-93.44608 111.7647,2.94118"
         style="fill:none;stroke:#000000;stroke-width:5;stroke-linecap:round;stroke-linejoin:miter;stroke-miterlimit:4;stroke-opacity:1;stroke-dasharray:none" />
    </g>
    <g
       id="g4566">
      <path
         sodipodi:nodetypes="ccccccc"
         inkscape:connector-curvature="0"
         id="path4445"
         d="m 3944.8745,791.31112 c -113.3545,-14.32197 -71.1451,-240.5688 61.7647,-197.05882 23.7366,-90.16057 266.9585,-99.43962 242.6471,22.05882 107.1612,-38.89089 168.7937,154.32518 54.4117,188.23529 95.7062,20.99364 76.3926,193.24862 -80.8823,157.35295 13.7524,96.65724 -212.7156,96.19874 -214.7059,-11.76471 -98.1898,97.45405 -183.1093,-95.1661 -63.2353,-158.82353 z"
         style="fill:url(#radialGradient4453);fill-opacity:1;stroke:#000000;stroke-width:10;stroke-linecap:butt;stroke-linejoin:miter;stroke-miterlimit:4;stroke-opacity:1;stroke-dasharray:none" />
      <path
         sodipodi:nodetypes="cc"
         inkscape:connector-curvature="0"
         id="path4455"
         d="m 4011.051,775.13465 c -34.2603,-40.5705 -15.514,-118.05967 52.9412,-111.76471"
         style="fill:none;stroke:#000000;stroke-width:5;stroke-linecap:butt;stroke-linejoin:miter;stroke-miterlimit:4;stroke-opacity:1;stroke-dasharray:none" />
      <path
         sodipodi:nodetypes="cc"
         inkscape:connector-curvature="0"
         id="path4457"
         d="m 4141.9334,648.66406 c 27.8944,-35.28938 183.3709,23.64674 89.7059,113.2353"
         style="fill:none;stroke:#000000;stroke-width:5;stroke-linecap:butt;stroke-linejoin:miter;stroke-miterlimit:4;stroke-opacity:1;stroke-dasharray:none" />
      <path
         sodipodi:nodetypes="cc"
         inkscape:connector-curvature="0"
         id="path4459"
         d="m 4247.8157,867.78171 c 18.4746,32.45071 -85.8697,103.40779 -102.9412,66.17647"
         style="fill:none;stroke:#000000;stroke-width:5;stroke-linecap:butt;stroke-linejoin:miter;stroke-miterlimit:4;stroke-opacity:1;stroke-dasharray:none" />
      <path
         sodipodi:nodetypes="cc"
         inkscape:connector-curvature="0"
         id="path4461"
         d="m 4068.404,901.60524 c -88.1836,23.13999 -100.6906,-62.84041 -50,-95.58824"
         style="fill:none;stroke:#000000;stroke-width:5;stroke-linecap:butt;stroke-linejoin:miter;stroke-miterlimit:4;stroke-opacity:1;stroke-dasharray:none" />
    </g>
    <g
       id="g4557"
       transform="translate(-10.398629,8.3189033)">
      <path
         sodipodi:nodetypes="ccccccccc"
         transform="translate(0,502.36218)"
         inkscape:connector-curvature="0"
         id="path4463"
         d="m 4502.9412,279.41176 c -92.6928,-34.00219 -79.1657,-178.67613 23.5294,-155.88235 -27.5417,-110.320241 132.7606,-137.016255 158.8235,-77.941175 38.2258,-82.015051 181.1305,-18.018223 160.2941,55.882355 126.203,-28.029368 111.8435,164.24737 57.353,172.05882 75.5143,69.88891 4.8422,218.54893 -77.9412,177.94118 -3.9749,115.07362 -137.9274,95.34549 -152.9412,4.41176 -26.1453,89.87154 -145.1013,97.20354 -144.1176,8.82353 -142.812,-8.16091 -121.8848,-157.74885 -25,-185.29412 z"
         style="fill:url(#radialGradient4564);fill-opacity:1;stroke:#000000;stroke-width:10;stroke-linecap:butt;stroke-linejoin:miter;stroke-miterlimit:4;stroke-opacity:1;stroke-dasharray:none" />
      <path
         sodipodi:nodetypes="cc"
         transform="translate(0,502.36218)"
         inkscape:connector-curvature="0"
         id="path4479"
         d="m 4595.1542,258.83838 c 28.4709,-4.64056 85.8292,-79.70751 41.5945,-118.54437"
         style="fill:none;stroke:#000000;stroke-width:5;stroke-linecap:butt;stroke-linejoin:miter;stroke-miterlimit:4;stroke-opacity:1;stroke-dasharray:none" />
      <path
         sodipodi:nodetypes="cc"
         inkscape:connector-curvature="0"
         id="path4481"
         d="m 4829.224,776.94709 c -73.0131,-1.05061 -103.5821,-94.323 -50.0286,-127.92996"
         style="fill:none;stroke:#000000;stroke-width:5;stroke-linecap:butt;stroke-linejoin:miter;stroke-miterlimit:4;stroke-opacity:1;stroke-dasharray:none" />
      <path
         sodipodi:nodetypes="cc"
         transform="translate(0,502.36218)"
         inkscape:connector-curvature="0"
         id="path4483"
         d="m 4823.9241,350.34632 c -4.1023,49.86359 -51.9254,78.991 -98.787,48.87356"
         style="fill:none;stroke:#000000;stroke-width:5;stroke-linecap:butt;stroke-linejoin:miter;stroke-miterlimit:4;stroke-opacity:1;stroke-dasharray:none" />
      <path
         sodipodi:nodetypes="cc"
         inkscape:connector-curvature="0"
         id="path4485"
         d="m 4662.7453,889.1037 c -57.6378,56.5368 -134.001,7.2592 -113.345,-37.43506"
         style="fill:none;stroke:#000000;stroke-width:5;stroke-linecap:butt;stroke-linejoin:miter;stroke-miterlimit:4;stroke-opacity:1;stroke-dasharray:none" />
    </g>
    <path
       style="fill:url(#radialGradient4495);fill-opacity:1;stroke:#000000;stroke-width:10;stroke-linecap:butt;stroke-linejoin:miter;stroke-miterlimit:4;stroke-opacity:1;stroke-dasharray:none"
       d="m 5062.0526,767.43974 c -67.2416,2.65289 -129.4831,-210.99544 59.2722,-188.21518 -4.7015,-80.78159 222.4916,-71.1306 177.8165,55.11273 129.2287,-22.07432 201.8227,91.97445 117.5045,176.7767 66.3295,61.9018 -30.1319,163.89134 -73.8302,128.943 -40.3278,118.43181 -222.9658,96.59861 -206.9328,19.75739 -118.5407,23.64913 -162.9234,-121.21901 -73.8302,-192.37464 z"
       id="path4487"
       inkscape:connector-curvature="0"
       sodipodi:nodetypes="ccccccc" />
  </g>
</svg>
